{"title":"Hospital.Massacre.1981-zombiRG@THC","uid":12251917,"size":1266930182,"categoryP":"video","categoryS":"movies","magnet":"?xt=urn:btih:e4f85c75c36be2b30390d09004f98d93a80904a5&amp;dn=Hospital.Massacre.1981-zombiRG%40THC&amp;tr=udp%3A%2F%2Ftracker.openbittorrent.com%3A80&amp;tr=udp%3A%2F%2Fopen.demonii.com%3A1337&amp;tr=udp%3A%2F%2Ftracker.coppersurfer.tk%3A6969&amp;tr=udp%3A%2F%2Fexodus.desync.com%3A6969","seeders":0,"leechers":0,"uploader":"zombiRG","files":1,"time":1440028494,"description":" &lt;a href=&quot;http://www.imdb.com/title/tt0082527/&quot; rel=&quot;nofollow&quot; target=&quot;_NEW&quot;&gt;http://www.imdb.com/title/tt0082527/&lt;/a&gt;\n\nscreens http://i.imgur.com/3vHxXj0.jpg\n\nWhile receiving a routine check-up, a beautiful woman is stalked by a maniac out to avenge a childhood Valentine's Day humiliation.\n\n\n\nFormat : AVI\nFormat/Info : Audio Video Interleave\nFormat profile : OpenDML\nFile size : 1.18 GiB\nDuration : 1h 25mn\nOverall bit rate : 1 979 Kbps\nMovie name : Hospital.Massacre.1981-zombiRG@THC\nWriting application : Lavf55.33.100\nOriginal source form/Name : Hospital Massacre_1981\n\nVideo\nID : 0\nFormat : MPEG-4 Visual\nFormat profile : Advanced Simple@L5\nFormat settings, BVOP : 2\nFormat settings, QPel : No\nFormat settings, GMC : No warppoints\nFormat settings, Matrix : Default (MPEG)\nMuxing mode : Packed bitstream\nCodec ID : XVID\nCodec ID/Hint : XviD\nDuration : 1h 25mn\nBit rate : 1 773 Kbps\nWidth : 720 pixels\nHeight : 416 pixels\nDisplay aspect ratio : 1.731\nFrame rate : 25.000 fps\nColor space : YUV\nChroma subsampling : 4:2:0\nBit depth : 8 bits\nScan type : Progressive\nCompression mode : Lossy\nBits/(Pixel*Frame) : 0.237\nStream size : 1.06 GiB (90%)\nWriting library : XviD 64\n\nAudio\nID : 1\nFormat : AC-3\nFormat/Info : Audio Coding 3\nMode extension : CM (complete main)\nFormat settings, Endianness : Big\nCodec ID : 2000\nDuration : 1h 25mn\nBit rate mode : Constant\nBit rate : 192 Kbps\nChannel(s) : 2 channels\nChannel positions : Front: L R\nSampling rate : 48.0 KHz\nCompression mode : Lossy\nStream size : 117 MiB (10%)\nAlignment : Aligned on interleaves\nInterleave, duration : 32 ms (0.80 video frame)","torrent":{"xt":"urn:btih:e4f85c75c36be2b30390d09004f98d93a80904a5","amp;dn":"Hospital.Massacre.1981-zombiRG%40THC","amp;tr":["udp%3A%2F%2Ftracker.openbittorrent.com%3A80","udp%3A%2F%2Fopen.demonii.com%3A1337","udp%3A%2F%2Ftracker.coppersurfer.tk%3A6969","udp%3A%2F%2Fexodus.desync.com%3A6969"],"infoHash":"e4f85c75c36be2b30390d09004f98d93a80904a5","infoHashBuffer":{"type":"Buffer","data":[228,248,92,117,195,107,226,179,3,144,208,144,4,249,141,147,168,9,4,165]},"announce":[],"urlList":[]}}